<svg xmlns="http://www.w3.org/2000/svg" viewBox="0 0 820 460" width="820" height="460"><rect width="820" height="460" fill="white"/><text x="64" y="26" font-family="system-ui,sans-serif" font-size="18" font-weight="700" fill="#111827">Cost–performance Pareto: SWE-bench Lite (n=300, Darwin harness)</text><text x="64" y="45" font-family="system-ui,sans-serif" font-size="12" fill="#6b7280">Cheap cascade reaches 51% resolve at $0.27/inst vs ~60% at $15+ frontier-only — the ~56× cost axis</text><line x1="64" y1="396" x2="620" y2="396" stroke="#374151" stroke-width="1.5"/><line x1="64" y1="56" x2="64" y2="396" stroke="#374151" stroke-width="1.5"/><line x1="64" y1="353.5" x2="620" y2="353.5" stroke="#e5e7eb" stroke-width="1"/><text x="56" y="357.5" text-anchor="end" font-family="system-ui,sans-serif" font-size="11" fill="#6b7280">30%</text><line x1="64" y1="268.5" x2="620" y2="268.5" stroke="#e5e7eb" stroke-width="1"/><text x="56" y="272.5" text-anchor="end" font-family="system-ui,sans-serif" font-size="11" fill="#6b7280">40%</text><line x1="64" y1="183.5" x2="620" y2="183.5" stroke="#e5e7eb" stroke-width="1"/><text x="56" y="187.5" text-anchor="end" font-family="system-ui,sans-serif" font-size="11" fill="#6b7280">50%</text><line x1="64" y1="98.5" x2="620" y2="98.5" stroke="#e5e7eb" stroke-width="1"/><text x="56" y="102.5" text-anchor="end" font-family="system-ui,sans-serif" font-size="11" fill="#6b7280">60%</text><text x="104.91121886721244" y="414" text-anchor="middle" font-family="system-ui,sans-serif" font-size="11" fill="#6b7280">$0.005</text><text x="241.2819484245873" y="414" text-anchor="middle" font-family="system-ui,sans-serif" font-size="11" fill="#6b7280">$0.05</text><text x="377.6526779819622" y="414" text-anchor="middle" font-family="system-ui,sans-serif" font-size="11" fill="#6b7280">$0.5</text><text x="579.0887811327876" y="414" text-anchor="middle" font-family="system-ui,sans-serif" font-size="11" fill="#6b7280">$15</text><text x="342" y="448" text-anchor="middle" font-family="system-ui,sans-serif" font-size="12" fill="#111827">Cost per instance (USD, log scale)</text><text transform="translate(16,226) rotate(-90)" text-anchor="middle" font-family="system-ui,sans-serif" font-size="12" fill="#111827">Resolve %</text><polyline fill="none" stroke="#6b7280" stroke-width="1.5" stroke-dasharray="5 3" points="104.91121886721244,319.5 169.97659246066289,271.04999999999995 180.7745967514395,294 306.3473220180378,135.89999999999998 327.66850386355907,192 340.49728042866116,172.45000000000002 379.97552688893524,-3.5 579.0887811327876,98.5"/><circle cx="104.91121886721244" cy="319.5" r="6" fill="#dc2626"/><text x="104.91121886721244" y="309.5" text-anchor="middle" font-family="system-ui,sans-serif" font-size="9" fill="#111827">Single-shot cheap</text><circle cx="180.7745967514395" cy="294" r="6" fill="#dc2626"/><text x="180.7745967514395" y="284" text-anchor="middle" font-family="system-ui,sans-serif" font-size="9" fill="#111827">Single-shot cheap</text><circle cx="169.97659246066289" cy="271.04999999999995" r="6" fill="#dc2626"/><text x="169.97659246066289" y="261.04999999999995" text-anchor="middle" font-family="system-ui,sans-serif" font-size="9" fill="#111827">Best-of-3 + LLM judge</text><circle cx="327.66850386355907" cy="192" r="6" fill="#2563eb"/><text x="327.66850386355907" y="182" text-anchor="middle" font-family="system-ui,sans-serif" font-size="9" fill="#111827">Cross-cascade</text><circle cx="340.49728042866116" cy="172.45000000000002" r="6" fill="#2563eb"/><text x="340.49728042866116" y="162.45000000000002" text-anchor="middle" font-family="system-ui,sans-serif" font-size="9" fill="#111827">GLM→Opus empty-patch c</text><circle cx="306.3473220180378" cy="135.89999999999998" r="6" fill="#2563eb"/><text x="306.3473220180378" y="125.89999999999998" text-anchor="middle" font-family="system-ui,sans-serif" font-size="9" fill="#111827">GLM→Opus cascade</text><circle cx="579.0887811327876" cy="98.5" r="6" fill="#2563eb"/><text x="579.0887811327876" y="88.5" text-anchor="middle" font-family="system-ui,sans-serif" font-size="9" fill="#111827">Opus single [BRUTE-FOR</text><circle cx="379.97552688893524" cy="-3.5" r="6" fill="#2563eb"/><text x="379.97552688893524" y="-13.5" text-anchor="middle" font-family="system-ui,sans-serif" font-size="9" fill="#111827">Opus+GLM cross-model B</text><circle cx="647" cy="64" r="5" fill="#dc2626"/><text x="662" y="68" font-family="system-ui,sans-serif" font-size="11.5" fill="#111827">Cheap / cascade</text><circle cx="647" cy="86" r="5" fill="#2563eb"/><text x="662" y="90" font-family="system-ui,sans-serif" font-size="11.5" fill="#111827">Frontier-only</text></svg>