<svg xmlns="http://www.w3.org/2000/svg" width="760" height="480" font-family="system-ui,sans-serif" font-size="12"><rect width="760" height="480" fill="#fff"/><text x="64" y="24" font-size="15" font-weight="700">Scaffolding cost↔resolve (FRAMES n=50, seed 42, reasoning OFF)</text><line x1="64" y1="389.07626097435013" x2="580" y2="389.07626097435013" stroke="#eee"/><text x="56" y="393.07626097435013" text-anchor="end" fill="#666">20%</text><line x1="64" y1="357.40127388535035" x2="580" y2="357.40127388535035" stroke="#eee"/><text x="56" y="361.40127388535035" text-anchor="end" fill="#666">25%</text><line x1="64" y1="325.72628679635045" x2="580" y2="325.72628679635045" stroke="#eee"/><text x="56" y="329.72628679635045" text-anchor="end" fill="#666">30%</text><line x1="64" y1="294.0512997073507" x2="580" y2="294.0512997073507" stroke="#eee"/><text x="56" y="298.0512997073507" text-anchor="end" fill="#666">35%</text><line x1="64" y1="262.3763126183509" x2="580" y2="262.3763126183509" stroke="#eee"/><text x="56" y="266.3763126183509" text-anchor="end" fill="#666">40%</text><line x1="64" y1="230.70132552935104" x2="580" y2="230.70132552935104" stroke="#eee"/><text x="56" y="234.70132552935104" text-anchor="end" fill="#666">45%</text><line x1="64" y1="199.02633844035122" x2="580" y2="199.02633844035122" stroke="#eee"/><text x="56" y="203.02633844035122" text-anchor="end" fill="#666">50%</text><line x1="64" y1="167.3513513513514" x2="580" y2="167.3513513513514" stroke="#eee"/><text x="56" y="171.3513513513514" text-anchor="end" fill="#666">55%</text><line x1="64" y1="135.67636426235154" x2="580" y2="135.67636426235154" stroke="#eee"/><text x="56" y="139.67636426235154" text-anchor="end" fill="#666">60%</text><line x1="64" y1="104.00137717335173" x2="580" y2="104.00137717335173" stroke="#eee"/><text x="56" y="108.00137717335173" text-anchor="end" fill="#666">65%</text><line x1="64" y1="72.32639008435187" x2="580" y2="72.32639008435187" stroke="#eee"/><text x="56" y="76.32639008435187" text-anchor="end" fill="#666">70%</text><line x1="154.39413204556047" y1="48" x2="154.39413204556047" y2="416" stroke="#f3f3f3"/><text x="154.39413204556047" y="434" text-anchor="middle" fill="#666">$0.02</text><line x1="279.2333420779756" y1="48" x2="279.2333420779756" y2="416" stroke="#f3f3f3"/><text x="279.2333420779756" y="434" text-anchor="middle" fill="#666">$0.05</text><line x1="373.67055883374195" y1="48" x2="373.67055883374195" y2="416" stroke="#f3f3f3"/><text x="373.67055883374195" y="434" text-anchor="middle" fill="#666">$0.1</text><line x1="468.10777558950844" y1="48" x2="468.10777558950844" y2="416" stroke="#f3f3f3"/><text x="468.10777558950844" y="434" text-anchor="middle" fill="#666">$0.2</text><text x="322" y="468" text-anchor="middle" fill="#333">$/task (log scale) →</text><text transform="translate(16,232) rotate(-90)" text-anchor="middle" fill="#333">resolve (EM, Wilson 95% CI)</text><line x1="134.36719918929714" y1="283.6619039421587" x2="134.36719918929714" y2="114.39077293854362" stroke="#2563eb" stroke-width="1.4" opacity="0.5"/><circle cx="134.36719918929714" cy="199.02633844035117" r="4.5" fill="#2563eb"/><text x="141.36719918929714" y="193.02633844035117" fill="#2563eb" font-size="10">none</text><line x1="210.41978016545437" y1="329.7173351695645" x2="210.41978016545437" y2="162.47340333964542" stroke="#ea580c" stroke-width="1.4" opacity="0.5"/><circle cx="210.41978016545437" cy="249.70631778275092" r="4.5" fill="#ea580c"/><text x="217.41978016545437" y="243.70631778275092" fill="#ea580c" font-size="10">none</text><line x1="457.04929500771743" y1="271.8154587708728" x2="457.04929500771743" y2="102.73437768979171" stroke="#2563eb" stroke-width="1.4" opacity="0.5"/><circle cx="457.04929500771743" cy="186.35634360475126" r="4.5" fill="#2563eb"/><text x="464.04929500771743" y="180.35634360475126" fill="#2563eb" font-size="10">verifier-bon</text><line x1="457.04929500771743" y1="247.74246858323295" x2="457.04929500771743" y2="79.67498708899986" stroke="#2563eb" stroke-width="1.4" opacity="0.5"/><rect x="453.04929500771743" y="157.01635393355136" width="8" height="8" fill="none" stroke="#2563eb" stroke-width="2"/><text x="464.04929500771743" y="155.01635393355136" fill="#2563eb" font-size="10">verifier-bon:sc</text><line x1="534.1576415034599" y1="340.8669306248924" x2="534.1576415034599" y2="174.82664830435533" stroke="#ea580c" stroke-width="1.4" opacity="0.5"/><circle cx="534.1576415034599" cy="262.3763126183509" r="4.5" fill="#ea580c"/><text x="541.1576415034599" y="256.3763126183509" fill="#ea580c" font-size="10">verifier-bon</text><line x1="534.1576415034599" y1="306.9113444654846" x2="534.1576415034599" y2="138.21036322947154" stroke="#ea580c" stroke-width="1.4" opacity="0.5"/><rect x="530.1576415034599" y="220.366328111551" width="8" height="8" fill="none" stroke="#ea580c" stroke-width="2"/><text x="541.1576415034599" y="218.366328111551" fill="#ea580c" font-size="10">verifier-bon:sc</text><line x1="112.59485825922636" y1="340.8669306248924" x2="112.59485825922636" y2="174.82664830435533" stroke="#2563eb" stroke-width="1.4" opacity="0.5"/><circle cx="112.59485825922636" cy="262.3763126183509" r="4.5" fill="#2563eb"/><text x="119.59485825922636" y="256.3763126183509" fill="#2563eb" font-size="10">plan</text><line x1="228.3420151008513" y1="362.8493716646583" x2="228.3420151008513" y2="199.91323807884316" stroke="#ea580c" stroke-width="1.4" opacity="0.5"/><circle cx="228.3420151008513" cy="287.7163022895507" r="4.5" fill="#ea580c"/><text x="235.3420151008513" y="281.7163022895507" fill="#ea580c" font-size="10">plan</text><line x1="372.8985967923407" y1="329.7173351695645" x2="372.8985967923407" y2="162.47340333964542" stroke="#2563eb" stroke-width="1.4" opacity="0.5"/><circle cx="372.8985967923407" cy="249.70631778275092" r="4.5" fill="#2563eb"/><text x="379.8985967923407" y="243.70631778275092" fill="#2563eb" font-size="10">ps-bon</text><line x1="372.8985967923407" y1="295.3182991909107" x2="372.8985967923407" y2="126.23721810982961" stroke="#2563eb" stroke-width="1.4" opacity="0.5"/><rect x="368.8985967923407" y="207.69633327595113" width="8" height="8" fill="none" stroke="#2563eb" stroke-width="2"/><text x="379.8985967923407" y="205.69633327595113" fill="#2563eb" font-size="10">ps-bon:sc</text><line x1="447.7229156788178" y1="384.32501291100016" x2="447.7229156788178" y2="141.25116199001556" stroke="#ea580c" stroke-width="1.4" opacity="0.5"/><circle cx="447.7229156788178" cy="274.4128077121708" r="4.5" fill="#ea580c"/><text x="454.7229156788178" y="268.4128077121708" fill="#ea580c" font-size="10">ps-bon</text><line x1="447.7229156788178" y1="384.32501291100016" x2="447.7229156788178" y2="141.25116199001556" stroke="#ea580c" stroke-width="1.4" opacity="0.5"/><rect x="443.7229156788178" y="270.4128077121708" width="8" height="8" fill="none" stroke="#ea580c" stroke-width="2"/><text x="454.7229156788178" y="268.4128077121708" fill="#ea580c" font-size="10">ps-bon:sc</text><line x1="277.41742204225545" y1="329.7173351695645" x2="277.41742204225545" y2="162.47340333964542" stroke="#2563eb" stroke-width="1.4" opacity="0.5"/><circle cx="277.41742204225545" cy="249.70631778275092" r="4.5" fill="#2563eb"/><text x="284.41742204225545" y="243.70631778275092" fill="#2563eb" font-size="10">reflexion</text><circle cx="592" cy="54" r="4.5" fill="#2563eb"/><text x="602" y="58" fill="#333">deepseek-v4-pro</text><circle cx="592" cy="74" r="4.5" fill="#ea580c"/><text x="602" y="78" fill="#333">glm-5.2</text><rect x="588" y="90" width="8" height="8" fill="none" stroke="#666" stroke-width="2"/><text x="602" y="98" fill="#333">□ = majority-vote (SC) view</text><text x="588" y="120" fill="#888" font-size="10">up-left = better</text><text x="588" y="134" fill="#888" font-size="10">(lift per $).</text></svg>